<svg width="60" height="36" viewBox="0 0 60 36" fill="none" xmlns="http://www.w3.org/2000/svg">
<g clip-path="url(#clip0_1_77)">
<path fill-rule="evenodd" clip-rule="evenodd" d="M59.0909 19.4189C59.0909 21.1604 57.0559 22.5721 54.5454 22.5721H4.54545C2.035 22.5721 0 21.1604 0 19.4189C0 17.6774 2.035 16.2658 4.54545 16.2658H54.5454C57.0559 16.2658 59.0909 17.6774 59.0909 19.4189ZM11.3636 25.7252H4.54545C4.54545 30.9497 10.6505 35.1847 18.1818 35.1847H40.9091C48.4404 35.1847 54.5454 30.9497 54.5454 25.7252H11.3636ZM9.09091 13.1126H4.54545V6.80631C4.54545 3.32333 8.61545 0.5 13.6364 0.5H45.4545C50.4754 0.5 54.5454 3.32333 54.5454 6.80631V13.1126H9.09091ZM45.4545 8.38288C45.4545 9.25347 46.4723 9.95946 47.7273 9.95946C48.9823 9.95946 50 9.25347 50 8.38288C50 7.5123 48.9823 6.80631 47.7273 6.80631C46.4723 6.80631 45.4545 7.5123 45.4545 8.38288ZM36.3636 5.22973C36.3636 6.10032 37.3814 6.80631 38.6364 6.80631C39.8914 6.80631 40.9091 6.10032 40.9091 5.22973C40.9091 4.35914 39.8914 3.65315 38.6364 3.65315C37.3814 3.65315 36.3636 4.35914 36.3636 5.22973ZM27.2727 8.38288C27.2727 9.25347 28.2905 9.95946 29.5455 9.95946C30.8005 9.95946 31.8182 9.25347 31.8182 8.38288C31.8182 7.5123 30.8005 6.80631 29.5455 6.80631C28.2905 6.80631 27.2727 7.5123 27.2727 8.38288ZM18.1818 5.22973C18.1818 6.10032 19.1995 6.80631 20.4545 6.80631C21.7095 6.80631 22.7273 6.10032 22.7273 5.22973C22.7273 4.35914 21.7095 3.65315 20.4545 3.65315C19.1995 3.65315 18.1818 4.35914 18.1818 5.22973ZM9.09091 8.38288C9.09091 9.25347 10.1086 9.95946 11.3636 9.95946C12.6186 9.95946 13.6364 9.25347 13.6364 8.38288C13.6364 7.5123 12.6186 6.80631 11.3636 6.80631C10.1086 6.80631 9.09091 7.5123 9.09091 8.38288Z" fill="#FD0B7D"/>
</g>
<defs>
<clipPath id="clip0_1_77">
<rect width="60" height="35" fill="white" transform="translate(0 0.5)"/>
</clipPath>
</defs>
</svg>
