<svg width="62" height="36" viewBox="0 0 62 36" fill="none" xmlns="http://www.w3.org/2000/svg">
<path fill-rule="evenodd" clip-rule="evenodd" d="M17.3614 20.1765L26.5366 14.7218L3.79325 1.20052C-1.26442 4.20738 -1.26442 9.09354 3.79325 12.1004L17.3614 20.1765ZM39.359 16.6782C44.3032 18.0563 51.2899 17.0829 56.4449 14.0182C62.6535 10.3271 63.8369 5.05547 59.0872 2.23172C54.3213 -0.592039 45.438 0.11149 39.2456 3.80261C34.0906 6.8673 32.4696 11.021 34.7715 13.9604C27.5578 18.2394 3.11241 32.7726 3.11241 32.7726L7.69998 35.5L30.0056 22.2389L52.3112 35.5L56.8988 32.7726L34.5932 19.5116L39.359 16.6782Z" fill="#FD0B7D"/>
</svg>
